<?xml version="1.0" encoding="utf-8"?>
<!-- Generator: Adobe Illustrator 23.0.0, SVG Export Plug-In . SVG Version: 6.00 Build 0)  -->
<svg version="1.1" id="Capa_1" xmlns="http://www.w3.org/2000/svg" xmlns:xlink="http://www.w3.org/1999/xlink" x="0px" y="0px"
	 viewBox="0 0 1884 1138.5" style="enable-background:new 0 0 1884 1138.5;" xml:space="preserve">
<style type="text/css">
	.st0{clip-path:url(#SVGID_2_);}
	.st1{clip-path:url(#SVGID_2_);fill:#1A1A1A;}
	.st2{clip-path:url(#SVGID_2_);fill:#333333;}
	.st3{clip-path:url(#SVGID_2_);fill:#E6E6E6;}
	.st4{clip-path:url(#SVGID_6_);}
	.st5{clip-path:url(#SVGID_10_);}
	.st6{clip-path:url(#SVGID_12_);}
	.st7{clip-path:url(#SVGID_14_);fill:url(#SVGID_15_);}
	.st8{opacity:0.4;clip-path:url(#SVGID_17_);}
	.st9{clip-path:url(#SVGID_19_);}
	.st10{clip-path:url(#SVGID_27_);}
	.st11{clip-path:url(#SVGID_31_);}
	.st12{opacity:0.8;clip-path:url(#SVGID_35_);}
	.st13{clip-path:url(#SVGID_37_);}
	.st14{clip-path:url(#SVGID_39_);}
	.st15{opacity:0.3;clip-path:url(#SVGID_43_);}
	.st16{clip-path:url(#SVGID_45_);}
	.st17{clip-path:url(#SVGID_49_);fill:url(#SVGID_50_);}
	.st18{clip-path:url(#SVGID_52_);fill:#FFFFFF;}
	.st19{opacity:0.3;clip-path:url(#SVGID_52_);}
	.st20{clip-path:url(#SVGID_54_);}
	.st21{clip-path:url(#SVGID_58_);fill:url(#SVGID_59_);}
	.st22{clip-path:url(#SVGID_61_);fill:#FFFFFF;}
	.st23{opacity:0.3;clip-path:url(#SVGID_61_);}
	.st24{clip-path:url(#SVGID_63_);}
	.st25{clip-path:url(#SVGID_67_);fill:url(#SVGID_68_);}
	.st26{clip-path:url(#SVGID_70_);fill:#FFFFFF;}
	.st27{clip-path:url(#SVGID_72_);fill:#009245;}
	.st28{clip-path:url(#SVGID_74_);fill:#009245;}
	.st29{clip-path:url(#SVGID_76_);fill:#009245;}
	.st30{clip-path:url(#SVGID_78_);fill:#009245;}
	.st31{clip-path:url(#SVGID_80_);}
	.st32{clip-path:url(#SVGID_84_);}
	.st33{clip-path:url(#SVGID_88_);}
	.st34{clip-path:url(#SVGID_92_);}
	.st35{clip-path:url(#SVGID_96_);}
	.st36{clip-path:url(#SVGID_100_);}
	.st37{clip-path:url(#SVGID_104_);}
	.st38{clip-path:url(#SVGID_108_);}
	.st39{clip-path:url(#SVGID_112_);}
	.st40{clip-path:url(#SVGID_116_);}
	.st41{clip-path:url(#SVGID_120_);}
	.st42{clip-path:url(#SVGID_124_);}
	.st43{clip-path:url(#SVGID_128_);}
	.st44{opacity:0.4;clip-path:url(#SVGID_132_);}
	.st45{clip-path:url(#SVGID_134_);}
	.st46{opacity:0.7;clip-path:url(#SVGID_132_);}
	.st47{clip-path:url(#SVGID_136_);}
	.st48{clip-path:url(#SVGID_138_);fill:url(#SVGID_139_);}
	
		.st49{clip-path:url(#SVGID_2_);fill:none;stroke:#009245;stroke-width:2.19;stroke-linecap:round;stroke-linejoin:round;stroke-miterlimit:10;}
	.st50{opacity:0.7;clip-path:url(#SVGID_141_);}
	.st51{clip-path:url(#SVGID_149_);fill:none;stroke:#009245;stroke-miterlimit:10;}
	.st52{clip-path:url(#SVGID_151_);fill:none;stroke:#009245;stroke-miterlimit:10;}
	.st53{opacity:0.7;clip-path:url(#SVGID_153_);}
	.st54{clip-path:url(#SVGID_155_);fill:#FFFFFF;}
	.st55{clip-path:url(#SVGID_155_);fill-rule:evenodd;clip-rule:evenodd;fill:#FFFFFF;}
	.st56{clip-path:url(#SVGID_157_);fill:#FFFFFF;}
	.st57{fill:#FFFFFF;}
</style>
<g>
	<path class="st57" d="M478.9,519.9c-102-61.66-207.48-125.47-207.48-238.57c0-33.14,8.91-66.48,26.39-94.19
		c-94.11,35.72-153.29,113.49-153.29,212.83c0,145.68,106.59,209.75,219.45,277.55c103.59,62.26,210.73,126.64,210.73,258.25
		c0,31.93-8.67,64-26.84,91.07c102.14-38.25,162.9-119,162.9-226.64C710.77,660.13,592.9,588.85,478.9,519.9z"/>
	<path class="st57" d="M1543.93,854.98c-57.37-127.75-95.17-228.14-245.08-258.13c125.14-14.33,247.68-75.6,247.68-225.53
		c0-167.78-182.68-234.93-308.16-236.87c-53.6,0-67.66,3.32-84.42,6.61v0.08c2.86-0.18,5.69-0.36,8.79-0.36c0,0,14.88-2.39,38.92,0
		c80.56,7.99,131.07,126.26,131.07,230.55c0,104.3-10.41,221.64-106.88,221.64h-99.08V312.68c0.95-70.99,4.86-115.02,36.39-133.39
		c-1.17,0.42-1.87,0.68-2.81,1.02c-63.77,24.52-113.54,82.25-155.98,191.04c-14.12,36.12-44.65,120.71-79.69,219.15v316.64
		c0,95.15-7.82,143.38-82.11,143.38v6.52h366.31v-6.52c-74.29,0-80.82-48.23-82.12-143.38V599.48h44.32
		c134.26,7.8,108.2,272.44,221.62,400.21c49.53,57.35,151.22,57.35,208.57,57.35h138.19v-6.52
		C1648.22,1050.52,1581.74,938.41,1543.93,854.98z"/>
	<polygon class="st57" points="85.36,1052.24 85.36,919.87 52.5,883.6 52.5,1085.11 235.11,1085.11 205.33,1052.24 	"/>
	<polygon class="st57" points="1648.89,57.89 1678.67,90.76 1798.64,90.76 1798.64,223.13 1831.5,259.4 1831.5,57.89 	"/>
	<path class="st57" d="M917.17,288.76V515.5l49.89-134.2c36.36-100.01,22.9-218.95-52.09-224.25l-72.41-3.03v4.46
		C910.08,158.49,917.17,201.1,917.17,288.76z"/>
	<path class="st57" d="M615.31,117.55v-6.52H204.66v6.52c82.14,0,161,137.65,194.9,221.07c7.15,17.64,25.58,60.66,50.05,117.26
		c12.67,7.88,25.7,15.78,39.04,23.85C609.33,552.69,746.1,635.4,746.1,805.34c0,73.06-22.65,135.68-63.38,184.97
		c21.43,48.91,34.92,79.66,34.92,79.66h28.68c0,0,42.62-122.21,93.24-266.06c-38.61-89.77-187.04-436.81-218.4-520.02
		C585.96,188.71,552.74,117.55,615.31,117.55z"/>
</g>
</svg>
